g REWARDICON_BUFF_HP
v -0.2510059 1.138163 0.1322974
v -0.2507715 1.138163 -0.1074023
v -0.08171875 1.115704 -0.1105884
v -0.0850293 1.115704 0.1314819
v -0.3703808 1.024762 -0.1070654
v -0.3703808 1.024762 0.1314258
v -0.3346387 0.8200566 -0.1379175
v -0.3379687 0.8200566 0.1297656
v -0.1961523 0.6381605 -0.1446313
v -0.202998 0.6381605 0.1298511
v 0.0004492187 0.4576448 0.1298511
v 0.002519531 0.4576448 -0.1338794
v 0.1997266 0.6381605 -0.1446313
v 0.1928906 0.6381605 0.1298511
v 0.3337207 0.8200566 -0.1380078
v 0.3303809 0.8200566 0.1297656
v 0.3632813 1.024762 -0.1085962
v 0.3629883 1.024762 0.1314258
v 0.2439355 1.138163 -0.107876
v 0.2436035 1.138163 0.1322851
v 0.1063965 1.117339 -0.1061694
v 0.1038281 1.117339 0.1317017
v 0.0146582 1.012524 -0.1327173
v 0.006318359 1.012524 0.1303809
v 0.2134473 1.094511 0.1570239
v 0.3182617 0.967297 0.1560107
v 0.2896191 0.8287363 0.1553809
v 0.16875 0.6720995 0.1554834
v 0.1011133 1.083971 0.1566675
v -5.859375E-05 0.5012965 0.1554834
v 0.005087891 0.9798177 0.1556567
v -0.08470703 1.082376 0.1565112
v -0.1788574 0.6720995 0.1554834
v -0.2208301 1.094511 0.1570239
v -0.297207 0.8287363 0.1553809
v -0.3256543 0.9992368 0.1563916
v 0.1789648 0.6599666 -0.1808984
v 0.01070313 0.8082513 -0.2220752
v 0.003945312 0.5012965 -0.1696143
v -0.1686426 0.6599666 -0.1808984
v 0.2950684 0.8181 -0.1736572
v -0.2917578 0.8181 -0.1735596
v -0.3256543 0.9992368 -0.1430102
v 0.01532227 0.9798177 -0.1921753
v -0.2449707 1.094511 -0.148877
v 0.3197949 0.9992368 -0.15104
v -0.07977539 1.082376 -0.1536084
v 0.2406152 1.094511 -0.1502124
v 0.1048438 1.083971 -0.1467944
v -0.0850293 1.115704 0.1314819
v -0.08470703 1.082376 0.1565112
v -0.2208301 1.094511 0.1570239
v -0.2510059 1.138163 0.1322974
v -0.3256543 0.9992368 0.1563916
v -0.3703808 1.024762 0.1314258
v -0.297207 0.8287363 0.1553809
v -0.3379687 0.8200566 0.1297656
v -0.1788574 0.6720995 0.1554834
v -0.202998 0.6381605 0.1298511
v -5.859375E-05 0.5012965 0.1554834
v 0.0004492187 0.4576448 0.1298511
v 0.16875 0.6720995 0.1554834
v 0.1928906 0.6381605 0.1298511
v 0.2896191 0.8287363 0.1553809
v 0.3303809 0.8200566 0.1297656
v 0.3182617 0.967297 0.1560107
v 0.3629883 1.024762 0.1314258
v 0.2134473 1.094511 0.1570239
v 0.2436035 1.138163 0.1322851
v 0.1011133 1.083971 0.1566675
v 0.1038281 1.117339 0.1317017
v 0.005087891 0.9798177 0.1556567
v 0.006318359 1.012524 0.1303809
v 0.002519531 0.4576448 -0.1338794
v 0.003945312 0.5012965 -0.1696143
v -0.1686426 0.6599666 -0.1808984
v -0.1961523 0.6381605 -0.1446313
v -0.2917578 0.8181 -0.1735596
v -0.3346387 0.8200566 -0.1379175
v -0.3256543 0.9992368 -0.1430102
v -0.3703808 1.024762 -0.1070654
v -0.2449707 1.094511 -0.148877
v -0.2507715 1.138163 -0.1074023
v -0.07977539 1.082376 -0.1536084
v -0.08171875 1.115704 -0.1105884
v 0.1997266 0.6381605 -0.1446313
v 0.1789648 0.6599666 -0.1808984
v 0.3337207 0.8200566 -0.1380078
v 0.2950684 0.8181 -0.1736572
v 0.3632813 1.024762 -0.1085962
v 0.3197949 0.9992368 -0.15104
v 0.2439355 1.138163 -0.107876
v 0.2406152 1.094511 -0.1502124
v 0.0146582 1.012524 -0.1327173
v 0.01532227 0.9798177 -0.1921753
v 0.1048438 1.083971 -0.1467944
v 0.1063965 1.117339 -0.1061694
v 0.0146582 1.012524 -0.1327173
v 0.01532227 0.9798177 -0.1921753
v 0.006318359 1.012524 0.1303809
v 0.005087891 0.9798177 0.1556567
v 0.0146582 1.012524 -0.1327173
v 0.006318359 1.012524 0.1303809
vt 0.04688742 0.9687541
vt 0.04688742 0.9687541
vt 0.04688742 0.9687541
vt 0.04688742 0.9687541
vt 0.04688742 0.9687541
vt 0.04688742 0.9687541
vt 0.04688742 0.9687541
vt 0.04688742 0.9687541
vt 0.04688742 0.9687541
vt 0.04688742 0.9687541
vt 0.04688742 0.9687541
vt 0.04688742 0.9687541
vt 0.04688742 0.9687541
vt 0.04688742 0.9687541
vt 0.04688742 0.9687541
vt 0.04688742 0.9687541
vt 0.04688742 0.9687541
vt 0.04688742 0.9687541
vt 0.04688742 0.9687541
vt 0.04688742 0.9687541
vt 0.04688742 0.9687541
vt 0.04688742 0.9687541
vt 0.04688742 0.9687541
vt 0.04688742 0.9687541
vt 0.04688742 0.9687541
vt 0.04688742 0.9687541
vt 0.04688742 0.9687541
vt 0.04688742 0.9687541
vt 0.04688742 0.9687541
vt 0.04688742 0.9687541
vt 0.04688742 0.9687541
vt 0.04688742 0.9687541
vt 0.04688742 0.9687541
vt 0.04688742 0.9687541
vt 0.04688742 0.9687541
vt 0.04688742 0.9687541
vt 0.04688742 0.9687541
vt 0.04688742 0.9687541
vt 0.04688742 0.9687541
vt 0.04688742 0.9687541
vt 0.04688742 0.9687541
vt 0.04688742 0.9687541
vt 0.04688742 0.9687541
vt 0.04688742 0.9687541
vt 0.04688742 0.9687541
vt 0.04688742 0.9687541
vt 0.04688742 0.9687541
vt 0.04688742 0.9687541
vt 0.04688742 0.9687541
vt 0.04688742 0.9687541
vt 0.04688742 0.9687541
vt 0.04688742 0.9687541
vt 0.04688742 0.9687541
vt 0.04688742 0.9687541
vt 0.04688742 0.9687541
vt 0.04688742 0.9687541
vt 0.04688742 0.9687541
vt 0.04688742 0.9687541
vt 0.04688742 0.9687541
vt 0.04688742 0.9687541
vt 0.04688742 0.9687541
vt 0.04688742 0.9687541
vt 0.04688742 0.9687541
vt 0.04688742 0.9687541
vt 0.04688742 0.9687541
vt 0.04688742 0.9687541
vt 0.04688742 0.9687541
vt 0.04688742 0.9687541
vt 0.04688742 0.9687541
vt 0.04688742 0.9687541
vt 0.04688742 0.9687541
vt 0.04688742 0.9687541
vt 0.04688742 0.9687541
vt 0.04688742 0.9687541
vt 0.04688742 0.9687541
vt 0.04688742 0.9687541
vt 0.04688742 0.9687541
vt 0.04688742 0.9687541
vt 0.04688742 0.9687541
vt 0.04688742 0.9687541
vt 0.04688742 0.9687541
vt 0.04688742 0.9687541
vt 0.04688742 0.9687541
vt 0.04688742 0.9687541
vt 0.04688742 0.9687541
vt 0.04688742 0.9687541
vt 0.04688742 0.9687541
vt 0.04688742 0.9687541
vt 0.04688742 0.9687541
vt 0.04688742 0.9687541
vt 0.04688742 0.9687541
vt 0.04688742 0.9687541
vt 0.04688742 0.9687541
vt 0.04688742 0.9687541
vt 0.04688742 0.9687541
vt 0.04688742 0.9687541
vt 0.04688742 0.9687541
vt 0.04688742 0.9687541
vt 0.04688742 0.9687541
vt 0.04688742 0.9687541
vt 0.04688742 0.9687541
vt 0.04688742 0.9687541
vt 0.04688742 0.9687541
vn -0.300557 0.9537638 0.0003656309
vn -0.2971347 0.9548355 0.0003711022
vn 0.4609196 0.887391 0.009506674
vn 0.4376404 0.8991061 0.008891062
vn -0.9747297 0.2233422 -0.004490446
vn -0.9688824 0.2474836 -0.004336454
vn -0.9051593 -0.4249123 -0.01167023
vn -0.9119224 -0.4102047 -0.01138526
vn -0.7311847 -0.6820574 -0.01291057
vn -0.7323758 -0.6807776 -0.01294613
vn -0.003361483 -0.9999944 -6.307853E-05
vn 0.003325 -0.9999945 4.755463E-05
vn 0.739898 -0.672592 0.01307512
vn 0.7383703 -0.6742697 0.01302764
vn 0.909271 -0.4160336 0.01192573
vn 0.9146256 -0.4041319 0.01171584
vn 0.9728387 0.2314277 0.005117402
vn 0.9668028 0.2554752 0.004961639
vn 0.3414923 0.9398846 8.494023E-05
vn 0.3382407 0.9410596 7.789557E-05
vn -0.4957189 0.8684295 -0.009646103
vn -0.4814848 0.8764053 -0.009279157
vn -0.74111 0.6711897 -0.01613545
vn -0.74111 0.6711897 -0.01613545
vn 0.0001335442 -0.002771564 0.9999962
vn 0.0001335442 -0.002771564 0.9999962
vn 0.0001335442 -0.002771564 0.9999962
vn 0.0001335442 -0.002771565 0.9999962
vn 0.0001335442 -0.002771564 0.9999962
vn 0.0001335442 -0.002771565 0.9999962
vn 0.0001335442 -0.002771564 0.9999962
vn 0.0001335442 -0.002771564 0.9999962
vn 0.0001335442 -0.002771564 0.9999962
vn 0.0001335442 -0.002771565 0.9999962
vn 0.0001335442 -0.002771564 0.9999962
vn 0.0001335442 -0.002771564 0.9999962
vn 0.1271432 -0.1288221 -0.9834833
vn -0.004449655 0.01613621 -0.9998599
vn -0.001952589 -0.1684261 -0.9857123
vn -0.1231031 -0.1245361 -0.9845488
vn 0.1661601 0.04531284 -0.9850572
vn -0.1556134 0.07368635 -0.9850659
vn -0.1431891 0.1224824 -0.982087
vn -0.01047898 0.1757387 -0.9843811
vn -0.1278434 0.08295346 -0.9883192
vn 0.1419134 0.1212909 -0.9824201
vn -0.00102307 0.3511716 -0.9363105
vn 0.1077567 0.1479947 -0.9831002
vn -0.05667575 0.4393544 -0.8965241
vn 0.2111949 0.5580406 0.8024883
vn 0.3320599 0.546444 0.7688532
vn -0.1198286 0.4510869 0.8843991
vn -0.1836206 0.407764 0.894434
vn -0.4345315 0.09494092 0.8956386
vn -0.4095258 0.1417586 0.9012176
vn -0.4797948 -0.2274199 0.8473943
vn -0.4880096 -0.2024294 0.84904
vn -0.4166864 -0.3753753 0.8279286
vn -0.4103812 -0.3862459 0.826076
vn 0.0003978219 -0.4547351 0.8906267
vn -0.000788394 -0.4547461 0.8906207
vn 0.4216656 -0.3716101 0.8271058
vn 0.4170339 -0.381238 0.8250699
vn 0.4851411 -0.245279 0.8393309
vn 0.4973134 -0.2196498 0.8393053
vn 0.4435596 0.04664625 0.8950301
vn 0.3369231 0.1796037 0.9242431
vn 0.1467458 0.3788273 0.913759
vn 0.194552 0.3326207 0.9227746
vn -0.3675554 0.5575615 0.7443306
vn -0.2289095 0.566599 0.7915592
vn -0.568323 0.5192704 0.6382533
vn -0.568323 0.5192704 0.6382533
vn -0.01287119 -0.6424227 -0.7662424
vn 0.004984522 -0.643048 -0.7658097
vn -0.5213072 -0.4973702 -0.693442
vn -0.5249353 -0.4934909 -0.6934766
vn -0.6173545 -0.2680594 -0.7396064
vn -0.629134 -0.1522996 -0.7622305
vn -0.5958847 0.1880698 -0.7807375
vn -0.5764455 0.2574526 -0.7755183
vn -0.2349369 0.6296699 -0.7404866
vn -0.1833543 0.6546201 -0.7333851
vn 0.3673027 0.7414884 -0.5615013
vn 0.2268344 0.7510098 -0.6201051
vn 0.5523787 -0.5186666 -0.6525816
vn 0.5572383 -0.5139906 -0.6521497
vn 0.6840588 -0.1591872 -0.7118449
vn 0.6707774 -0.2652507 -0.6926036
vn 0.6204107 0.2756806 -0.734228
vn 0.6443946 0.2018014 -0.7375851
vn 0.1961456 0.6621779 -0.7232202
vn 0.276713 0.6307895 -0.7249376
vn 0.59736 0.6809626 -0.4236166
vn 0.59736 0.6809626 -0.4236166
vn -0.4024282 0.7247584 -0.5592645
vn -0.2634057 0.7381211 -0.6211238
vn -0.5994142 0.6703943 -0.437349
vn -0.5994142 0.6703943 -0.437349
vn 0.5679498 0.4937849 0.6584903
vn 0.5679498 0.4937849 0.6584904
vn 0.7405444 0.6717905 0.01708072
vn 0.7405444 0.6717904 0.01708072
g REWARDICON_BUFF_HP_0
f 3/3/3 2/2/2 1/1/1
f 4/4/4 3/3/3 1/1/1
f 2/2/2 5/5/5 1/1/1
f 5/5/5 6/6/6 1/1/1
f 6/6/6 5/5/5 7/7/7
f 8/8/8 6/6/6 7/7/7
f 8/8/8 7/7/7 9/9/9
f 10/10/10 8/8/8 9/9/9
f 11/11/11 10/10/10 9/9/9
f 12/12/12 11/11/11 9/9/9
f 12/12/12 13/13/13 11/11/11
f 13/13/13 14/14/14 11/11/11
f 13/13/13 15/15/15 14/14/14
f 15/15/15 16/16/16 14/14/14
f 15/15/15 17/17/17 16/16/16
f 17/17/17 18/18/18 16/16/16
f 18/18/18 17/17/17 19/19/19
f 20/20/20 18/18/18 19/19/19
f 20/20/20 19/19/19 21/21/21
f 22/22/22 20/20/20 21/21/21
f 22/22/22 21/21/21 23/23/23
f 24/24/24 22/22/22 23/23/23
f 27/27/27 26/26/26 25/25/25
f 25/25/25 28/28/28 27/27/27
f 25/25/25 29/29/29 28/28/28
f 29/29/29 30/30/30 28/28/28
f 29/29/29 31/31/31 30/30/30
f 31/31/31 32/32/32 30/30/30
f 32/32/32 33/33/33 30/30/30
f 32/32/32 34/34/34 33/33/33
f 34/34/34 35/35/35 33/33/33
f 34/34/34 36/36/36 35/35/35
f 39/39/39 38/38/38 37/37/37
f 39/39/39 40/40/40 38/38/38
f 37/37/37 38/38/38 41/41/41
f 38/38/38 40/40/40 42/42/42
f 43/43/43 38/38/38 42/42/42
f 44/44/44 38/38/38 43/43/43
f 43/43/43 45/45/45 44/44/44
f 41/41/41 38/38/38 46/46/46
f 38/38/38 44/44/44 46/46/46
f 44/44/44 45/45/45 47/47/47
f 44/44/44 48/48/48 46/46/46
f 49/49/49 48/48/48 44/44/44
f 52/52/52 51/51/51 50/50/50
f 53/53/53 52/52/52 50/50/50
f 54/54/54 52/52/52 53/53/53
f 55/55/55 54/54/54 53/53/53
f 56/56/56 54/54/54 55/55/55
f 57/57/57 56/56/56 55/55/55
f 58/58/58 56/56/56 57/57/57
f 59/59/59 58/58/58 57/57/57
f 60/60/60 58/58/58 59/59/59
f 61/61/61 60/60/60 59/59/59
f 62/62/62 60/60/60 61/61/61
f 63/63/63 62/62/62 61/61/61
f 64/64/64 62/62/62 63/63/63
f 65/65/65 64/64/64 63/63/63
f 66/66/66 64/64/64 65/65/65
f 67/67/67 66/66/66 65/65/65
f 68/68/68 66/66/66 67/67/67
f 69/69/69 68/68/68 67/67/67
f 70/70/70 68/68/68 69/69/69
f 71/71/71 70/70/70 69/69/69
f 72/72/72 70/70/70 71/71/71
f 73/73/73 72/72/72 71/71/71
f 76/76/76 75/75/75 74/74/74
f 77/77/77 76/76/76 74/74/74
f 78/78/78 76/76/76 77/77/77
f 79/79/79 78/78/78 77/77/77
f 80/80/80 78/78/78 79/79/79
f 81/81/81 80/80/80 79/79/79
f 82/82/82 80/80/80 81/81/81
f 83/83/83 82/82/82 81/81/81
f 84/84/84 82/82/82 83/83/83
f 85/85/85 84/84/84 83/83/83
f 74/74/74 75/75/75 86/86/86
f 75/75/75 87/87/87 86/86/86
f 86/86/86 87/87/87 88/88/88
f 87/87/87 89/89/89 88/88/88
f 88/88/88 89/89/89 90/90/90
f 89/89/89 91/91/91 90/90/90
f 90/90/90 91/91/91 92/92/92
f 91/91/91 93/93/93 92/92/92
f 85/85/85 94/94/94 84/84/84
f 94/94/94 95/95/95 84/84/84
f 92/92/92 93/93/93 96/96/96
f 97/97/97 92/92/92 96/96/96
f 97/97/97 96/96/96 98/98/98
f 96/96/96 99/99/99 98/98/98
f 51/51/51 101/101/101 100/100/100
f 50/50/50 51/51/51 100/100/100
f 103/103/103 102/102/102 3/3/3
f 4/4/4 103/103/103 3/3/3
